<?xml version="1.0" encoding="utf-8"?>
<!-- Generator: Adobe Illustrator 16.0.0, SVG Export Plug-In . SVG Version: 6.00 Build 0)  -->
<!DOCTYPE svg PUBLIC "-//W3C//DTD SVG 1.1//EN" "http://www.w3.org/Graphics/SVG/1.1/DTD/svg11.dtd">
<svg version="1.1" xmlns="http://www.w3.org/2000/svg" xmlns:xlink="http://www.w3.org/1999/xlink" x="0px" y="0px" width="169px"
	 height="72px" viewBox="0 0 169 72" enable-background="new 0 0 169 72" xml:space="preserve">
<g id="Layer_1">
	<g>
		<path fill-rule="evenodd" clip-rule="evenodd" fill="#5D5D5D" d="M57.153,66.154h-1.528c-0.329,0-0.534-0.263-0.534-0.592V54.884
			c0-2.538-1.093-2.895-2.656-2.895h-0.68c-1.887,0-2.536,0.327-2.536,2.008v11.565c0,0.329-0.207,0.592-0.53,0.592h-1.536
			c-0.327,0-0.534-0.263-0.534-0.592V53.997c0-1.681-0.649-2.008-2.541-2.008h-0.673c-1.536,0-2.66,0.356-2.66,2.895v10.679
			c0,0.329-0.203,0.592-0.53,0.592h-1.536c-0.325,0-0.529-0.263-0.529-0.592V54.884c0-3.042,1.712-5.165,5.255-5.165h0.673
			c1.773,0,2.924,0.234,3.841,1.059c0.884-0.766,2.065-1.059,3.834-1.059h0.68c3.541,0,5.253,2.123,5.253,5.165v10.679
			C57.688,65.892,57.481,66.154,57.153,66.154z"/>
		<path fill-rule="evenodd" clip-rule="evenodd" fill="#5D5D5D" d="M62.853,66.154h-1.414c-0.327,0-0.593-0.263-0.593-0.592V50.514
			c0-0.322,0.266-0.589,0.593-0.589h1.414c0.325,0,0.59,0.267,0.59,0.589v15.049C63.443,65.892,63.177,66.154,62.853,66.154z
			 M62.743,47.328h-1.505c-0.327,0-0.591-0.266-0.591-0.594v-2.359c0-0.324,0.264-0.588,0.591-0.588h1.505
			c0.323,0,0.589,0.264,0.589,0.588v2.359C63.332,47.062,63.065,47.328,62.743,47.328z"/>
		<path fill-rule="evenodd" clip-rule="evenodd" fill="#5D5D5D" d="M78.35,66.154h-1.532c-0.327,0-0.534-0.263-0.534-0.592V55.029
			c0-2.213-0.558-3.07-2.565-3.07h-2.094c-2.011,0-2.569,0.857-2.569,3.07v10.533c0,0.329-0.209,0.592-0.532,0.592h-1.534
			c-0.325,0-0.532-0.263-0.532-0.592V55.029c0-4.543,3.155-5.311,5.166-5.311h2.094c2.007,0,5.162,0.768,5.162,5.311v10.533
			C78.882,65.892,78.677,66.154,78.35,66.154z"/>
		<path fill-rule="evenodd" clip-rule="evenodd" fill="#5D5D5D" d="M91.322,52.197c-0.977-0.178-2.51-0.208-3.458-0.208
			c-2.888,0-3.833,1.802-3.833,4.958v2.126c0,3.215,0.911,5.017,3.833,5.017c1.007,0,2.452-0.09,3.458-0.175V52.197z M93.298,65.858
			c-1.833,0.355-3.63,0.503-5.434,0.503c-4.394,0-6.43-2.864-6.43-7.288v-2.126c0-4.631,2.122-7.229,6.43-7.229
			c0.919,0,2.305,0.088,3.458,0.293v-5.489c0-0.295,0.234-0.559,0.561-0.559h1.504c0.292,0,0.531,0.233,0.531,0.559v20.659
			C93.918,65.562,93.827,65.771,93.298,65.858z"/>
		<path fill-rule="evenodd" clip-rule="evenodd" fill="#5D5D5D" d="M109.619,50.633l-3.983,14.049
			c-0.381,1.327-1.386,1.68-2.653,1.68c-1.269,0-2.272-0.353-2.656-1.68l-3.982-14.049c-0.031-0.089-0.031-0.146-0.031-0.206
			c0-0.297,0.179-0.502,0.474-0.502h1.622c0.238,0,0.441,0.177,0.559,0.562l3.396,12.866c0.179,0.706,0.323,0.856,0.619,0.856
			c0.266,0,0.442-0.15,0.618-0.856l3.395-12.866c0.116-0.385,0.327-0.562,0.562-0.562h1.623c0.294,0,0.471,0.205,0.471,0.502
			C109.651,50.486,109.651,50.544,109.619,50.633z"/>
		<path fill-rule="evenodd" clip-rule="evenodd" fill="#5D5D5D" d="M120.24,58.303h-2.181c-0.889,0-1.625,0.058-2.215,0.166
			c-0.59,0.107-1.056,0.272-1.388,0.499c-0.336,0.228-0.571,0.524-0.709,0.886c-0.137,0.364-0.205,0.812-0.205,1.345v0.355
			c0,1.062,0.233,1.772,0.707,2.139c0.472,0.362,1.14,0.543,2.008,0.543c0.688,0,1.345-0.095,1.977-0.292
			c0.629-0.198,1.301-0.493,2.006-0.89V58.303z M122.838,65.562c0,0.162-0.059,0.296-0.179,0.414
			c-0.117,0.117-0.253,0.178-0.412,0.178h-1.355c-0.159,0-0.296-0.061-0.413-0.178c-0.12-0.118-0.179-0.252-0.179-0.414v-0.647
			c-0.707,0.414-1.437,0.761-2.182,1.034c-0.748,0.274-1.535,0.412-2.364,0.412c-0.628,0-1.232-0.072-1.812-0.22
			c-0.581-0.149-1.094-0.408-1.534-0.784c-0.443-0.373-0.797-0.861-1.065-1.475c-0.267-0.611-0.396-1.379-0.396-2.301v-0.354
			c0-0.787,0.121-1.481,0.369-2.082c0.244-0.601,0.648-1.104,1.209-1.505c0.561-0.402,1.292-0.704,2.197-0.897
			c0.905-0.198,2.016-0.3,3.338-0.3h2.181v-1.181c0-1.238-0.237-2.103-0.705-2.595c-0.476-0.491-1.29-0.739-2.451-0.739
			c-0.964,0-1.811,0.027-2.536,0.075c-0.731,0.05-1.39,0.102-1.981,0.162h-0.146c-0.14,0-0.261-0.03-0.369-0.09
			c-0.107-0.058-0.162-0.188-0.162-0.386V50.66c0-0.312,0.207-0.501,0.619-0.561c0.608-0.098,1.273-0.186,1.992-0.266
			c0.718-0.076,1.576-0.117,2.583-0.117c2.048,0,3.516,0.492,4.41,1.475c0.897,0.986,1.344,2.34,1.344,4.072V65.562z"/>
		<path fill-rule="evenodd" clip-rule="evenodd" fill="#5D5D5D" d="M128.03,66.154h-1.534c-0.294,0-0.531-0.263-0.531-0.592v-21.04
			c0-0.295,0.209-0.559,0.531-0.559h1.534c0.298,0,0.532,0.233,0.532,0.559v21.04C128.562,65.858,128.359,66.154,128.03,66.154z"/>
		<path fill-rule="evenodd" clip-rule="evenodd" fill="#5D5D5D" d="M134.13,66.154h-1.536c-0.296,0-0.53-0.263-0.53-0.592v-21.04
			c0-0.295,0.205-0.559,0.53-0.559h1.536c0.294,0,0.531,0.233,0.531,0.559v21.04C134.661,65.858,134.454,66.154,134.13,66.154z"/>
		<path fill-rule="evenodd" clip-rule="evenodd" fill="#5D5D5D" d="M147.923,56.622c0-3.332-1.271-4.633-3.867-4.633
			c-2.538,0-3.953,1.446-3.953,4.633v0.269h7.82V56.622z M149.988,58.866h-9.886v0.416c0,3.509,1.386,4.808,4.104,4.808
			c1.71,0,3.894-0.118,5.253-0.325h0.145c0.236,0,0.474,0.118,0.474,0.414v1.003c0,0.381-0.119,0.59-0.59,0.677
			c-1.682,0.329-3.306,0.503-5.281,0.503c-3.395,0-6.702-1.595-6.702-7.079v-2.66c0-4.217,2.33-6.903,6.552-6.903
			c4.309,0,6.493,2.714,6.493,6.903v1.595C150.549,58.602,150.344,58.866,149.988,58.866z"/>
		<path fill-rule="evenodd" clip-rule="evenodd" fill="#5D5D5D" d="M159.729,72c-2.18,0-4.188-0.328-4.868-0.505
			c-0.412-0.118-0.558-0.264-0.558-0.617v-0.827c0-0.294,0.236-0.499,0.532-0.499h0.087c0.887,0.115,3.099,0.353,4.807,0.353
			c2.66,0,3.486-0.651,3.486-3.75v-0.146c-0.708,0.205-2.332,0.353-3.275,0.353c-3.393,0-6.612-1.18-6.612-6.108v-9.739
			c0-0.322,0.266-0.589,0.593-0.589h1.416c0.324,0,0.586,0.267,0.586,0.589v9.739c0,3.158,1.538,3.895,4.018,3.895
			c0.854,0,2.362-0.176,3.216-0.383V50.514c0-0.322,0.266-0.589,0.591-0.589h1.417c0.326,0,0.59,0.267,0.59,0.589v15.641
			C165.754,70.789,163.747,72,159.729,72z"/>
		<g>
			<g>
				<path fill-rule="evenodd" clip-rule="evenodd" fill="#F69400" d="M22.514,54.699c0,0,0.003-0.08,0.01-0.205
					C22.518,54.615,22.514,54.699,22.514,54.699z"/>
				<path fill-rule="evenodd" clip-rule="evenodd" fill="#F69400" d="M25.825,44.32c-1.977,1.788-3.108,7.236-3.312,10.379
					c0,0,1.208,0.629,8.544-5.851c7.339-6.483,11.744-12.417,11.744-12.417S31.369,39.305,25.825,44.32z"/>
				<path fill-rule="evenodd" clip-rule="evenodd" fill="#F69400" d="M22.528,54.374c0.004-0.07,0.007-0.145,0.013-0.237
					C22.535,54.232,22.532,54.303,22.528,54.374z"/>
				<path fill-rule="evenodd" clip-rule="evenodd" fill="#F69400" d="M22.542,54.108"/>
			</g>
			<g>
				<path fill-rule="evenodd" clip-rule="evenodd" fill="#FEB808" d="M20.289,54.699c-0.203-3.143-1.335-8.557-3.312-10.344
					C11.436,39.34,0.007,36.5,0.002,36.5H0c0,0,4.405,5.899,11.744,12.383c7.339,6.479,8.546,5.833,8.546,5.833"/>
			</g>
			<path fill-rule="evenodd" clip-rule="evenodd" fill="#FBAE2D" d="M42.802,36.432c0,0-14.536,1.197-17.863,5.023
				c-0.099,0.115-0.193,0.267-0.284,0.422c-0.064,0.117-0.13,0.23-0.19,0.362c-0.02,0.042-0.04,0.085-0.059,0.129
				c-0.205,0.466-0.389,1.011-0.555,1.61c-0.004,0.021-0.01,0.039-0.015,0.061c-0.065,0.236-0.124,0.486-0.183,0.738
				c-0.913,4.048-1.138,9.922-1.138,9.922c0.203-3.143,1.335-8.591,3.312-10.379C31.369,39.305,42.802,36.432,42.802,36.432z"/>
			<path fill-rule="evenodd" clip-rule="evenodd" fill="#FFD45C" d="M0.001,36.432c0,0,14.536,1.197,17.863,5.023
				c0.099,0.115,0.193,0.267,0.284,0.422c0.065,0.117,0.13,0.23,0.19,0.362c0.021,0.042,0.04,0.085,0.059,0.129
				c0.205,0.466,0.39,1.011,0.555,1.61c0.005,0.021,0.01,0.039,0.015,0.061c0.065,0.236,0.124,0.486,0.183,0.738
				c0.913,4.048,1.138,9.922,1.138,9.922c-0.203-3.143-1.335-8.591-3.312-10.379C11.434,39.305,0.001,36.432,0.001,36.432z"/>
		</g>
	</g>
	<g>
		<path fill-rule="evenodd" clip-rule="evenodd" fill="#FFFFFF" d="M52.436,13.287h-0.68c-1.769,0-2.95,0.293-3.834,1.059
			c-0.917-0.824-2.068-1.059-3.841-1.059h-0.673c-3.543,0-5.255,2.123-5.255,5.165v10.679c0,0.329,0.205,0.592,0.529,0.592h1.536
			c0.327,0,0.53-0.263,0.53-0.592V18.452c0-2.538,1.124-2.895,2.66-2.895h0.673c1.891,0,2.541,0.327,2.541,2.008v11.565
			c0,0.329,0.207,0.592,0.534,0.592h1.536c0.323,0,0.53-0.263,0.53-0.592V17.565c0-1.681,0.649-2.008,2.536-2.008h0.68
			c1.562,0,2.656,0.356,2.656,2.895v10.679c0,0.329,0.205,0.592,0.534,0.592h1.528c0.328,0,0.535-0.263,0.535-0.592V18.452
			C57.688,15.41,55.977,13.287,52.436,13.287z"/>
		<path fill-rule="evenodd" clip-rule="evenodd" fill="#FFFFFF" d="M62.743,10.896c0.323,0,0.589-0.266,0.589-0.594V7.943
			c0-0.324-0.266-0.588-0.589-0.588h-1.505c-0.327,0-0.591,0.264-0.591,0.588v2.359c0,0.328,0.264,0.594,0.591,0.594H62.743z"/>
		<path fill-rule="evenodd" clip-rule="evenodd" fill="#FFFFFF" d="M62.853,13.493h-1.414c-0.327,0-0.593,0.267-0.593,0.589v15.049
			c0,0.329,0.266,0.592,0.593,0.592h1.414c0.325,0,0.59-0.263,0.59-0.592V14.082C63.443,13.76,63.177,13.493,62.853,13.493z"/>
		<path fill-rule="evenodd" clip-rule="evenodd" fill="#FFFFFF" d="M73.72,13.287h-2.094c-2.011,0-5.166,0.768-5.166,5.311v10.533
			c0,0.329,0.207,0.592,0.532,0.592h1.534c0.323,0,0.532-0.263,0.532-0.592V18.598c0-2.213,0.558-3.07,2.569-3.07h2.094
			c2.007,0,2.565,0.857,2.565,3.07v10.533c0,0.329,0.207,0.592,0.534,0.592h1.532c0.327,0,0.532-0.263,0.532-0.592V18.598
			C78.882,14.055,75.727,13.287,73.72,13.287z"/>
		<path fill-rule="evenodd" clip-rule="evenodd" fill="#FFFFFF" d="M93.387,7.532h-1.504c-0.326,0-0.561,0.264-0.561,0.559v5.489
			c-1.153-0.205-2.539-0.293-3.458-0.293c-4.308,0-6.43,2.598-6.43,7.229v2.126c0,4.424,2.036,7.288,6.43,7.288
			c1.804,0,3.601-0.147,5.434-0.503c0.529-0.087,0.62-0.296,0.62-0.677V8.091C93.918,7.766,93.679,7.532,93.387,7.532z
			 M91.322,27.483c-1.006,0.085-2.451,0.175-3.458,0.175c-2.922,0-3.833-1.802-3.833-5.017v-2.126c0-3.156,0.945-4.958,3.833-4.958
			c0.948,0,2.481,0.03,3.458,0.208V27.483z"/>
		<path fill-rule="evenodd" clip-rule="evenodd" fill="#FFFFFF" d="M109.181,13.493h-1.623c-0.235,0-0.446,0.177-0.562,0.562
			l-3.395,12.866c-0.176,0.706-0.353,0.856-0.618,0.856c-0.296,0-0.44-0.15-0.619-0.856l-3.396-12.866
			c-0.117-0.385-0.32-0.562-0.559-0.562h-1.622c-0.295,0-0.474,0.205-0.474,0.502c0,0.06,0,0.117,0.031,0.206l3.982,14.049
			c0.384,1.327,1.388,1.68,2.656,1.68c1.268,0,2.272-0.353,2.653-1.68l3.983-14.049c0.032-0.089,0.032-0.146,0.032-0.206
			C109.651,13.698,109.475,13.493,109.181,13.493z"/>
		<path fill-rule="evenodd" clip-rule="evenodd" fill="#FFFFFF" d="M117.084,13.285c-1.007,0-1.865,0.041-2.583,0.117
			c-0.719,0.08-1.384,0.168-1.992,0.266c-0.412,0.06-0.619,0.249-0.619,0.561v1.031c0,0.198,0.055,0.328,0.162,0.386
			c0.108,0.06,0.229,0.09,0.369,0.09h0.146c0.592-0.061,1.25-0.112,1.981-0.162c0.726-0.048,1.572-0.075,2.536-0.075
			c1.161,0,1.976,0.248,2.451,0.739c0.468,0.492,0.705,1.356,0.705,2.595v1.181h-2.181c-1.322,0-2.433,0.102-3.338,0.3
			c-0.905,0.193-1.637,0.495-2.197,0.897c-0.561,0.401-0.965,0.904-1.209,1.505c-0.248,0.601-0.369,1.295-0.369,2.082v0.354
			c0,0.922,0.129,1.689,0.396,2.301c0.269,0.613,0.622,1.102,1.065,1.475c0.44,0.376,0.953,0.635,1.534,0.784
			c0.58,0.147,1.185,0.22,1.812,0.22c0.829,0,1.616-0.138,2.364-0.412c0.745-0.273,1.475-0.62,2.182-1.034v0.647
			c0,0.162,0.059,0.296,0.179,0.414c0.117,0.117,0.254,0.178,0.413,0.178h1.355c0.159,0,0.295-0.061,0.412-0.178
			c0.12-0.118,0.179-0.252,0.179-0.414V18.832c0-1.732-0.446-3.086-1.344-4.072C120.6,13.777,119.132,13.285,117.084,13.285z
			 M120.24,26.622c-0.705,0.396-1.377,0.691-2.006,0.89c-0.632,0.197-1.288,0.292-1.977,0.292c-0.868,0-1.536-0.181-2.008-0.543
			c-0.474-0.366-0.707-1.076-0.707-2.139v-0.355c0-0.532,0.068-0.98,0.205-1.345c0.138-0.361,0.373-0.658,0.709-0.886
			c0.332-0.227,0.798-0.392,1.388-0.499c0.59-0.108,1.326-0.166,2.215-0.166h2.181V26.622z"/>
		<path fill-rule="evenodd" clip-rule="evenodd" fill="#FFFFFF" d="M128.03,7.532h-1.534c-0.322,0-0.531,0.264-0.531,0.559v21.04
			c0,0.329,0.237,0.592,0.531,0.592h1.534c0.329,0,0.532-0.296,0.532-0.592V8.091C128.562,7.766,128.328,7.532,128.03,7.532z"/>
		<path fill-rule="evenodd" clip-rule="evenodd" fill="#FFFFFF" d="M134.13,7.532h-1.536c-0.325,0-0.53,0.264-0.53,0.559v21.04
			c0,0.329,0.234,0.592,0.53,0.592h1.536c0.324,0,0.531-0.296,0.531-0.592V8.091C134.661,7.766,134.424,7.532,134.13,7.532z"/>
		<path fill-rule="evenodd" clip-rule="evenodd" fill="#FFFFFF" d="M144.056,13.287c-4.222,0-6.552,2.687-6.552,6.903v2.66
			c0,5.484,3.308,7.079,6.702,7.079c1.976,0,3.6-0.174,5.281-0.503c0.471-0.087,0.59-0.296,0.59-0.677v-1.003
			c0-0.296-0.237-0.414-0.474-0.414h-0.145c-1.359,0.207-3.543,0.325-5.253,0.325c-2.718,0-4.104-1.299-4.104-4.808v-0.416h9.886
			c0.355,0,0.561-0.265,0.561-0.649V20.19C150.549,16.001,148.364,13.287,144.056,13.287z M147.923,20.459h-7.82V20.19
			c0-3.187,1.415-4.633,3.953-4.633c2.597,0,3.867,1.301,3.867,4.633V20.459z"/>
		<path fill-rule="evenodd" clip-rule="evenodd" fill="#FFFFFF" d="M165.164,13.493h-1.417c-0.325,0-0.591,0.267-0.591,0.589v13.251
			c-0.854,0.207-2.361,0.383-3.216,0.383c-2.479,0-4.018-0.736-4.018-3.895v-9.739c0-0.322-0.262-0.589-0.586-0.589h-1.416
			c-0.327,0-0.593,0.267-0.593,0.589v9.739c0,4.929,3.22,6.108,6.612,6.108c0.943,0,2.567-0.147,3.275-0.353v0.146
			c0,3.099-0.826,3.75-3.486,3.75c-1.708,0-3.92-0.237-4.807-0.353h-0.087c-0.296,0-0.532,0.205-0.532,0.499v0.827
			c0,0.354,0.146,0.499,0.558,0.617c0.681,0.177,2.688,0.505,4.868,0.505c4.018,0,6.024-1.211,6.024-5.846V14.082
			C165.754,13.76,165.49,13.493,165.164,13.493z"/>
		<path fill-rule="evenodd" clip-rule="evenodd" fill="#FFFFFF" d="M24.938,5.023c-0.099,0.115-0.193,0.267-0.284,0.422
			c-0.064,0.117-0.13,0.23-0.19,0.362c-0.02,0.042-0.04,0.085-0.059,0.129c-0.205,0.466-0.389,1.011-0.555,1.61
			c-0.004,0.021-0.01,0.039-0.015,0.061c-0.065,0.236-0.124,0.486-0.183,0.738c-0.913,4.048-1.138,9.922-1.138,9.922
			s1.208,0.629,8.544-5.851C38.397,5.934,42.802,0,42.802,0S28.266,1.197,24.938,5.023z"/>
	</g>
	<path fill-rule="evenodd" clip-rule="evenodd" fill="#FFFFFF" d="M17.864,5.023c0.099,0.115,0.193,0.267,0.284,0.422
		c0.064,0.117,0.13,0.23,0.19,0.362c0.02,0.042,0.04,0.085,0.059,0.129c0.205,0.466,0.389,1.011,0.555,1.61
		c0.004,0.021,0.01,0.039,0.015,0.061c0.065,0.236,0.124,0.486,0.183,0.738c0.913,4.048,1.138,9.922,1.138,9.922
		s-1.208,0.629-8.544-5.851C4.406,5.934,0.001,0,0.001,0S14.537,1.197,17.864,5.023z"/>
</g>
<g id="Layer_2">
</g>
</svg>
